<svg width="62" height="41" viewBox="0 0 62 41" fill="none" xmlns="http://www.w3.org/2000/svg">
<path d="M14.9993 39.0002C16.4138 39.0002 17.7704 38.4383 18.7706 37.4381C19.7708 36.4379 20.3327 35.0813 20.3327 33.6668C20.3327 32.2523 19.7708 30.8958 18.7706 29.8956C17.7704 28.8954 16.4138 28.3335 14.9993 28.3335C13.5849 28.3335 12.2283 28.8954 11.2281 29.8956C10.2279 30.8958 9.66602 32.2523 9.66602 33.6668C9.66602 35.0813 10.2279 36.4379 11.2281 37.4381C12.2283 38.4383 13.5849 39.0002 14.9993 39.0002V39.0002ZM45.666 39.0002C47.0805 39.0002 48.4371 38.4383 49.4372 37.4381C50.4374 36.4379 50.9993 35.0813 50.9993 33.6668C50.9993 32.2523 50.4374 30.8958 49.4372 29.8956C48.4371 28.8954 47.0805 28.3335 45.666 28.3335C44.2515 28.3335 42.895 28.8954 41.8948 29.8956C40.8946 30.8958 40.3327 32.2523 40.3327 33.6668C40.3327 35.0813 40.8946 36.4379 41.8948 37.4381C42.895 38.4383 44.2515 39.0002 45.666 39.0002V39.0002Z" stroke="#E42016" stroke-width="2.5" stroke-linejoin="round"/>
<path d="M40.3327 33.6667V11.0001H51.7607L60.3327 22.3334V33.6667H52.0807M9.66602 33.6667H1.66602V1.66675H40.3327V33.6667H20.3327H9.66602Z" stroke="#E42016" stroke-width="2.5" stroke-linecap="round" stroke-linejoin="round"/>
</svg>
