<svg width="64" height="64" viewBox="0 0 64 64" fill="none" xmlns="http://www.w3.org/2000/svg">
<path d="M15.9993 52.0002C17.4138 52.0002 18.7704 51.4383 19.7706 50.4381C20.7708 49.4379 21.3327 48.0813 21.3327 46.6668C21.3327 45.2523 20.7708 43.8958 19.7706 42.8956C18.7704 41.8954 17.4138 41.3335 15.9993 41.3335C14.5849 41.3335 13.2283 41.8954 12.2281 42.8956C11.2279 43.8958 10.666 45.2523 10.666 46.6668C10.666 48.0813 11.2279 49.4379 12.2281 50.4381C13.2283 51.4383 14.5849 52.0002 15.9993 52.0002V52.0002ZM46.666 52.0002C48.0805 52.0002 49.4371 51.4383 50.4372 50.4381C51.4374 49.4379 51.9993 48.0813 51.9993 46.6668C51.9993 45.2523 51.4374 43.8958 50.4372 42.8956C49.4371 41.8954 48.0805 41.3335 46.666 41.3335C45.2515 41.3335 43.895 41.8954 42.8948 42.8956C41.8946 43.8958 41.3327 45.2523 41.3327 46.6668C41.3327 48.0813 41.8946 49.4379 42.8948 50.4381C43.895 51.4383 45.2515 52.0002 46.666 52.0002V52.0002Z" stroke="#E42016" stroke-width="2.5" stroke-linejoin="round"/>
<path d="M41.3327 46.6667V24.0001H52.7607L61.3327 35.3334V46.6667H53.0807M10.666 46.6667H2.66602V14.6667H41.3327V46.6667H21.3327H10.666Z" stroke="#E42016" stroke-width="2.5" stroke-linecap="round" stroke-linejoin="round"/>
</svg>
