<svg width="64" height="64" viewBox="0 0 64 64" fill="none" xmlns="http://www.w3.org/2000/svg">
<path d="M5.33398 16H58.6673V26.6667L56.8033 27.7867C55.3528 28.657 53.6929 29.1168 52.0013 29.1168C50.3097 29.1168 48.6499 28.657 47.1993 27.7867L45.334 26.6667L43.47 27.7867C42.0194 28.657 40.3596 29.1168 38.668 29.1168C36.9764 29.1168 35.3165 28.657 33.866 27.7867L32.0007 26.6667L30.1367 27.7867C28.6859 28.6573 27.0259 29.1172 25.334 29.1172C23.6421 29.1172 21.982 28.6573 20.5313 27.7867L18.6673 26.6667L16.802 27.7867C15.3516 28.6568 13.692 29.1164 12.0007 29.1164C10.3093 29.1164 8.64972 28.6568 7.19932 27.7867L5.33398 26.6667V16Z" stroke="#E42016" stroke-width="2.5" stroke-linecap="round" stroke-linejoin="round"/>
<path d="M10.668 29.9853V58.6666H53.3346V29.3333" stroke="#E42016" stroke-width="2.5" stroke-linecap="round" stroke-linejoin="round"/>
<path d="M10.668 15.7626V5.33325H53.3346V15.9999" stroke="#E42016" stroke-width="2.5" stroke-linecap="round" stroke-linejoin="round"/>
<path d="M25.334 42.6665H38.6673V58.6665H25.334V42.6665Z" stroke="#E42016" stroke-width="2.5" stroke-linecap="round" stroke-linejoin="round"/>
</svg>
