<svg width="56" height="56" viewBox="0 0 56 56" fill="none" xmlns="http://www.w3.org/2000/svg">
<path d="M1.33398 12H54.6673V22.6667L52.8033 23.7867C51.3528 24.657 49.6929 25.1168 48.0013 25.1168C46.3097 25.1168 44.6499 24.657 43.1993 23.7867L41.334 22.6667L39.47 23.7867C38.0194 24.657 36.3596 25.1168 34.668 25.1168C32.9764 25.1168 31.3165 24.657 29.866 23.7867L28.0007 22.6667L26.1367 23.7867C24.6859 24.6573 23.0259 25.1172 21.334 25.1172C19.6421 25.1172 17.982 24.6573 16.5313 23.7867L14.6673 22.6667L12.802 23.7867C11.3516 24.6568 9.69201 25.1164 8.00065 25.1164C6.30929 25.1164 4.64972 24.6568 3.19932 23.7867L1.33398 22.6667V12Z" stroke="#E42016" stroke-width="2.5" stroke-linecap="round" stroke-linejoin="round"/>
<path d="M6.66797 25.9853V54.6666H49.3346V25.3333" stroke="#E42016" stroke-width="2.5" stroke-linecap="round" stroke-linejoin="round"/>
<path d="M6.66797 11.7626V1.33325H49.3346V11.9999" stroke="#E42016" stroke-width="2.5" stroke-linecap="round" stroke-linejoin="round"/>
<path d="M21.334 38.6665H34.6673V54.6665H21.334V38.6665Z" stroke="#E42016" stroke-width="2.5" stroke-linecap="round" stroke-linejoin="round"/>
</svg>
