<svg width="52" height="56" viewBox="0 0 52 56" fill="none" xmlns="http://www.w3.org/2000/svg">
<path d="M39.3334 35.9999V34.6519C39.3334 33.5949 39.7533 32.5813 40.5007 31.8339C41.2481 31.0865 42.2618 30.6666 43.3187 30.6666V30.6666C44.3748 30.6666 45.3877 31.0857 46.1349 31.832C46.8822 32.5782 47.3027 33.5905 47.3041 34.6466L47.3201 45.5799C47.3218 46.7726 47.0884 47.9539 46.6332 49.0562C46.178 50.1586 45.51 51.1604 44.6673 52.0044C43.8246 52.8483 42.8237 53.5178 41.722 53.9746C40.6203 54.4315 39.4394 54.6666 38.2467 54.6666H28.1961C25.2945 54.6666 22.4332 53.9867 19.8418 52.6815C17.2503 51.3763 15.0007 49.482 13.2734 47.1506L7.58674 39.4746C7.1171 38.8408 6.84592 38.0819 6.80748 37.294C6.76903 36.5061 6.96504 35.7245 7.37074 35.0479V35.0479C7.68266 34.5279 8.10902 34.0859 8.61741 33.7554C9.12579 33.4249 9.70283 33.2146 10.3047 33.1406C10.9065 33.0665 11.5173 33.1307 12.0906 33.3281C12.664 33.5255 13.1848 33.851 13.6134 34.2799L15.3334 35.9999V17.3333C15.3334 16.2724 15.7548 15.255 16.505 14.5048C17.2551 13.7547 18.2725 13.3333 19.3334 13.3333C20.3943 13.3333 21.4117 13.7547 22.1618 14.5048C22.912 15.255 23.3334 16.2724 23.3334 17.3333V33.1666V24.0346C23.3334 22.9645 23.7585 21.9383 24.5151 21.1816C25.2718 20.425 26.298 19.9999 27.3681 19.9999V19.9999C27.898 19.9997 28.4228 20.104 28.9125 20.3067C29.4021 20.5093 29.8471 20.8065 30.2219 21.1812C30.5967 21.5558 30.894 22.0007 31.0968 22.4903C31.2997 22.9799 31.4041 23.5046 31.4041 24.0346V34.6666V33.1986C31.4041 32.1471 31.8217 31.1387 32.565 30.3951C33.3084 29.6515 34.3166 29.2336 35.3681 29.2333V29.2333C36.4197 29.2333 37.4283 29.651 38.172 30.3947C38.9156 31.1383 39.3334 32.1469 39.3334 33.1986V35.9999Z" stroke="#E42016" stroke-width="2.5" stroke-linecap="round" stroke-linejoin="round"/>
<path d="M36.666 1.33325V11.9999" stroke="#E42016" stroke-width="2.5" stroke-linecap="round"/>
<path d="M15.3333 22.6666H2V17.3333C4.66667 17.3333 7.33333 15.3333 7.29867 11.9999C7.264 8.66658 4.66667 6.66658 2 6.66658V1.33325H50V6.66658C47.3333 6.66658 44.736 8.66658 44.7013 11.9999C44.6667 15.3333 47.3333 17.3333 50 17.3333V22.6666H31.3333" stroke="#E42016" stroke-width="2.5" stroke-linecap="round" stroke-linejoin="round"/>
</svg>
