<svg width="24" height="24" viewBox="0 0 24 24" fill="none" xmlns="http://www.w3.org/2000/svg">
<g clip-path="url(#clip0_3_25626)">
<path fill-rule="evenodd" clip-rule="evenodd" d="M1.65037 3.78414C2.00973 3.18797 3.99095 1.02377 5.40278 1.08909C5.82516 1.12527 6.19853 1.3796 6.5019 1.67595H6.50307C7.19847 2.35729 9.19369 4.92866 9.3057 5.47001C9.58224 6.7977 7.9989 7.56304 8.48312 8.90124C9.7176 11.9217 11.8447 14.0487 14.8666 15.2818C16.2038 15.7671 16.9692 14.1851 18.297 14.4605C18.8384 14.5737 21.4112 16.5675 22.0914 17.264C22.3867 17.5662 22.6433 17.9407 22.6783 18.3631C22.7308 19.8505 20.4323 21.8584 19.9842 22.1151C18.9271 22.8723 17.5479 22.8583 15.8666 22.0767C11.175 20.1248 3.67709 12.7688 1.68887 7.90022C0.92812 6.22836 0.87678 4.84 1.65037 3.78414Z" stroke="#E42016" stroke-linecap="round" stroke-linejoin="round"/>
<path opacity="0.5" d="M14.8008 1.37158C19.0065 1.83851 22.3273 5.15586 22.7999 9.36048" stroke="#E42016" stroke-linecap="round" stroke-linejoin="round"/>
<path opacity="0.5" d="M14.8008 5.39673C16.8116 5.78868 18.3828 7.35987 18.7748 9.37073" stroke="#E42016" stroke-linecap="round" stroke-linejoin="round"/>
</g>
<defs>
<clipPath id="clip0_3_25626">
<rect width="24" height="24" fill="white"/>
</clipPath>
</defs>
</svg>
