<svg width="661" height="960" viewBox="0 0 661 960" fill="none" xmlns="http://www.w3.org/2000/svg">
<g filter="url(#filter0_f_3_24866)">
<path d="M527.089 528.295C554.452 472.272 532.605 440.951 534.886 384.751C537.399 322.824 544.103 265.302 538.946 225.759C532.499 176.33 470.184 135.762 396.291 121.571C322.397 107.381 271.943 190.656 202.452 316.334C132.961 442.011 213.382 411.32 184.409 469.943C155.436 528.566 104.394 480.184 40.819 612.438C-22.7559 744.692 110.864 804.053 160.293 830.316C209.721 856.578 314.535 824.991 355.323 788.495C396.111 752 492.886 598.323 527.089 528.295Z" fill="url(#paint0_angular_3_24866)"/>
</g>
<defs>
<filter id="filter0_f_3_24866" x="-96" y="0" width="757" height="960" filterUnits="userSpaceOnUse" color-interpolation-filters="sRGB">
<feFlood flood-opacity="0" result="BackgroundImageFix"/>
<feBlend mode="normal" in="SourceGraphic" in2="BackgroundImageFix" result="shape"/>
<feGaussianBlur stdDeviation="60" result="effect1_foregroundBlur_3_24866"/>
</filter>
<radialGradient id="paint0_angular_3_24866" cx="0" cy="0" r="1" gradientUnits="userSpaceOnUse" gradientTransform="translate(546.673 482.167) rotate(121.053) scale(339.94 569.328)">
<stop offset="0.0612777" stop-color="#FCCDC4"/>
<stop offset="0.221959" stop-color="#FDEDE9"/>
<stop offset="0.996742" stop-color="#E42016"/>
</radialGradient>
</defs>
</svg>
