<svg width="20" height="20" viewBox="0 0 20 20" fill="none" xmlns="http://www.w3.org/2000/svg">
<path d="M9.99913 5.19274C7.33898 5.19274 5.1921 7.33961 5.1921 9.99977C5.1921 12.6599 7.33898 14.8068 9.99913 14.8068C12.6593 14.8068 14.8062 12.6599 14.8062 9.99977C14.8062 7.33961 12.6593 5.19274 9.99913 5.19274ZM9.99913 13.124C8.27882 13.124 6.87492 11.7201 6.87492 9.99977C6.87492 8.27946 8.27882 6.87555 9.99913 6.87555C11.7194 6.87555 13.1234 8.27946 13.1234 9.99977C13.1234 11.7201 11.7194 13.124 9.99913 13.124ZM15.003 3.87555C14.3819 3.87555 13.8804 4.37711 13.8804 4.99821C13.8804 5.6193 14.3819 6.12086 15.003 6.12086C15.6241 6.12086 16.1257 5.62164 16.1257 4.99821C16.1259 4.85073 16.097 4.70466 16.0406 4.56837C15.9843 4.43208 15.9016 4.30824 15.7973 4.20396C15.693 4.09967 15.5692 4.01698 15.4329 3.96063C15.2966 3.90428 15.1505 3.87537 15.003 3.87555ZM19.3694 9.99977C19.3694 8.70602 19.3812 7.42399 19.3085 6.13258C19.2359 4.63258 18.8937 3.30133 17.7968 2.20446C16.6976 1.10524 15.3687 0.765394 13.8687 0.692738C12.5749 0.620082 11.2929 0.631801 10.0015 0.631801C8.70773 0.631801 7.4257 0.620082 6.13429 0.692738C4.63429 0.765394 3.30304 1.10758 2.20617 2.20446C1.10695 3.30368 0.767103 4.63258 0.694447 6.13258C0.621791 7.42633 0.63351 8.70836 0.63351 9.99977C0.63351 11.2912 0.621791 12.5756 0.694447 13.867C0.767103 15.367 1.10929 16.6982 2.20617 17.7951C3.30538 18.8943 4.63429 19.2341 6.13429 19.3068C7.42804 19.3795 8.71007 19.3677 10.0015 19.3677C11.2952 19.3677 12.5773 19.3795 13.8687 19.3068C15.3687 19.2341 16.6999 18.892 17.7968 17.7951C18.896 16.6959 19.2359 15.367 19.3085 13.867C19.3835 12.5756 19.3694 11.2935 19.3694 9.99977ZM17.3069 15.5263C17.1359 15.9529 16.9296 16.2716 16.5991 16.5998C16.2687 16.9302 15.9523 17.1365 15.5257 17.3076C14.2929 17.7974 11.3655 17.6873 9.99913 17.6873C8.63273 17.6873 5.70304 17.7974 4.47023 17.3099C4.04367 17.1388 3.72492 16.9326 3.39679 16.6021C3.06632 16.2716 2.86007 15.9552 2.68898 15.5287C2.20148 14.2935 2.31163 11.3662 2.31163 9.99977C2.31163 8.63336 2.20148 5.70368 2.68898 4.47086C2.86007 4.0443 3.06632 3.72555 3.39679 3.39743C3.72726 3.0693 4.04367 2.86071 4.47023 2.68961C5.70304 2.20211 8.63273 2.31227 9.99913 2.31227C11.3655 2.31227 14.2952 2.20211 15.528 2.68961C15.9546 2.86071 16.2734 3.06696 16.6015 3.39743C16.9319 3.72789 17.1382 4.0443 17.3093 4.47086C17.7968 5.70368 17.6866 8.63336 17.6866 9.99977C17.6866 11.3662 17.7968 14.2935 17.3069 15.5263Z" fill="white"/>
</svg>
